<svg aria-hidden="true" style="position: absolute; width: 0px; height: 0px; overflow-x: hidden; overflow-y: hidden;" version="1.1" xmlns="http://www.w3.org/2000/svg">
<defs>

<symbol id="icon-check-box" viewBox="0 0 32 32">
<path d="M19.807 10.527a1.2 1.2 0 1 1 1.987 1.347l-6.508 9.6a1.2 1.2 0 0 1-1.986 0l-3.09-4.56a1.2 1.2 0 1 1 1.986-1.347l2.098 3.095 5.515-8.135z"/>
<path stroke-linejoin="miter" stroke-linecap="butt" stroke-miterlimit="4" stroke-width="3" d="M8 1.5h16A6.5 6.5 0 0 1 30.5 8v16a6.5 6.5 0 0 1-6.5 6.5H8A6.5 6.5 0 0 1 1.5 24V8A6.5 6.5 0 0 1 8 1.5z"/>
</symbol>

<symbol id="icon-close-button" viewBox="0 0 32 32">
<path stroke-linejoin="round" stroke-linecap="round" stroke-miterlimit="4" stroke-width="3.4286" d="M24 8 8 24"/>
<path stroke-linejoin="round" stroke-linecap="round" stroke-miterlimit="4" stroke-width="3.4286" d="m8 8 16 16"/>
</symbol>

<symbol id="icon-shopping-cart" viewBox="0 0 32 32">
<path stroke-linejoin="round" stroke-linecap="round" stroke-miterlimit="4" stroke-width="2.6667" d="M12 29.333a1.333 1.333 0 1 0 0-2.667 1.333 1.333 0 0 0 0 2.667z"/>
<path stroke-linejoin="round" stroke-linecap="round" stroke-miterlimit="4" stroke-width="2.6667" d="M26.667 29.333a1.333 1.333 0 1 0 0-2.667 1.333 1.333 0 0 0 0 2.667z"/>
<path stroke-linejoin="round" stroke-linecap="round" stroke-miterlimit="4" stroke-width="2.4" d="M1.333 1.333h5.333l3.573 17.853a2.67 2.67 0 0 0 2.665 2.147h12.96a2.667 2.667 0 0 0 2.666-2.147L30.665 8H7.997"/>
</symbol>

<symbol id="icon-arrow-button" viewBox="0 0 32 32">
<path d="M32 4.74 27.26 0v23.704L3.554 0 0 3.556 23.702 27.26H0L4.74 32H32V4.743z"/>
</symbol>

<symbol id="icon-youtube" viewBox="0 0 32 32">
<path d="M24.24 6c-1.36-.08-4.16-.16-8.4-.16h-.56c-4.08 0-6.8.08-8.16.24-1.84.16-3.12.64-3.84 1.28-.64.56-1.12 1.6-1.28 2.96-.08.88-.16 2.72-.16 5.52v.4c0 2.64.08 4.48.24 5.36.24 1.28.64 2.24 1.44 2.8.8.64 2.16 1.04 4.08 1.2 1.36.08 4.16.16 8.4.16h.56c4.08 0 6.8-.08 8.16-.24 1.84-.16 3.12-.64 3.84-1.28.64-.56 1.12-1.6 1.28-2.96.08-.88.16-2.72.16-5.52v-.4c0-2.64-.08-4.48-.24-5.36-.24-1.28-.64-2.24-1.44-2.8-.8-.64-2.16-1.04-4.08-1.2zm-3.12 9.84-8.8 5.28V10.56l8.8 5.28z"/>
</symbol>

<symbol id="icon-instagram" viewBox="0 0 32 32">
<path d="M28.718 10.756a9.264 9.264 0 0 0-.596-3.145 6.547 6.547 0 0 0-3.743-3.736 9.42 9.42 0 0 0-3.11-.596C19.904 3.218 19.47 3.2 16 3.2s-3.916 0-5.274.078a9.413 9.413 0 0 0-3.106.596A6.54 6.54 0 0 0 3.875 7.61a9.288 9.288 0 0 0-.596 3.102c-.062 1.367-.08 1.8-.08 5.265s0 3.91.08 5.265c.02 1.062.22 2.11.595 3.104A6.548 6.548 0 0 0 7.62 28.08a9.37 9.37 0 0 0 3.105.64c1.37.06 1.803.08 5.274.08s3.915 0 5.273-.08a9.362 9.362 0 0 0 3.108-.595 6.555 6.555 0 0 0 3.744-3.737 9.35 9.35 0 0 0 .596-3.104c.06-1.365.08-1.798.08-5.265-.003-3.467-.003-3.907-.082-5.265zM15.99 22.53c-3.63 0-6.572-2.935-6.572-6.56s2.94-6.56 6.572-6.56c3.628 0 6.572 2.935 6.572 6.56s-2.944 6.56-6.572 6.56zm6.834-11.834a1.53 1.53 0 1 1 0-3.06 1.53 1.53 0 1 1 0 3.06z"/>
<path d="M15.992 19.976a4.004 4.004 0 1 0 0-8.009 4.004 4.004 0 0 0 0 8.01z"/>
</symbol>

<symbol id="icon-facebook" viewBox="0 0 32 32">
<path d="M19.52 4.64h.96v3.6h-1.2c-.48 0-.96 0-1.2.24-.24.24-.24.48-.24 1.04v1.28h2.64v3.04h-2.64v13.2h-4.08V13.76H11.6v-3.04h2.16V9.68c0-1.76.24-3.04.72-3.6.72-1.04 2.16-1.52 4.32-1.52.24.08.48.08.72.08z"/>
</symbol>

<symbol id="icon-logo" viewBox="0 0 32 32">
<path d="M29.082.314h-4.01c-1.236 0-2.24.983-2.24 2.195v3.928c0 1.212 1.004 2.195 2.24 2.195h4.01c1.237 0 2.24-.983 2.24-2.195v-3.93c0-1.21-1.003-2.194-2.24-2.194z"/>
<path d="M6.73 23.04H2.412C1.08 23.04 0 24.023 0 25.235v3.93c0 1.212 1.08 2.194 2.412 2.194H6.73c1.332 0 2.412-.984 2.412-2.196v-3.93c0-1.21-1.08-2.194-2.412-2.194z"/>
<path d="M6.25 11.582H2.24c-1.236 0-2.24.983-2.24 2.195v3.93c0 1.21 1.004 2.194 2.24 2.194h4.01c1.237 0 2.24-.982 2.24-2.194v-3.93c0-1.21-1.003-2.194-2.24-2.194z"/>
<path d="M17.766 22.978h-4.01c-1.236 0-2.24.983-2.24 2.195v3.93c0 1.21 1.004 2.194 2.242 2.194h4.01c1.236 0 2.24-.983 2.24-2.195v-3.93c0-1.21-1.004-2.194-2.24-2.194z"/>
<path d="M6.25.086H2.24C1.005.086 0 1.07 0 2.28v3.93c0 1.212 1.004 2.195 2.24 2.195h4.01c1.237 0 2.24-.983 2.24-2.195V2.28C8.49 1.07 7.487.087 6.25.087z"/>
<path d="M18.076 11.697h-4.01c-1.236 0-2.24.983-2.24 2.195v3.93c0 1.21 1.004 2.194 2.24 2.194h4.01c1.237 0 2.24-.983 2.24-2.195v-3.928c0-1.212-1.003-2.195-2.24-2.195z"/>
<path d="M29.333 22.978h-4.01c-1.237 0-2.24.983-2.24 2.195v3.93c0 1.21 1.003 2.194 2.24 2.194h4.01c1.236 0 2.24-.983 2.24-2.195v-3.93c0-1.21-1.004-2.194-2.24-2.194z"/>
<path d="M17.59.224h-4.008c-1.237 0-2.24.983-2.24 2.195v3.928c0 1.212 1.003 2.195 2.24 2.195h4.01c1.236 0 2.24-.984 2.24-2.196v-3.93c0-1.21-1.004-2.194-2.24-2.194z"/>
<path d="M29.044 11.926h-4.01c-1.237 0-2.24.983-2.24 2.195v3.93c0 1.212 1.003 2.195 2.24 2.195h4.01c1.236 0 2.24-.983 2.24-2.195v-3.93c0-1.21-1.004-2.194-2.24-2.194z"/>
</symbol>
</defs>
</svg>